<svg width="24" height="24" viewBox="0 0 24 24" fill="none" xmlns="http://www.w3.org/2000/svg">
<path d="M11.2357 2.37392C10.8682 2.52616 10.5387 2.85565 9.87978 3.51457C9.221 4.17335 8.89138 4.50298 8.73915 4.87047C8.53617 5.36053 8.53617 5.91121 8.73915 6.40126C8.8914 6.76881 9.22087 7.09828 9.87981 7.75722C10.5384 8.41578 10.8683 8.74568 11.2357 8.89788C11.7258 9.10086 12.2764 9.10086 12.7665 8.89787C13.134 8.74563 13.4635 8.41616 14.1225 7.75722C14.7814 7.09828 15.1099 6.76881 15.2621 6.40126C15.4651 5.91121 15.4651 5.36053 15.2621 4.87047C15.1099 4.50293 14.7814 4.17351 14.1225 3.51457C13.4635 2.85564 13.134 2.52616 12.7665 2.37392C12.2764 2.17093 11.7258 2.17093 11.2357 2.37392Z" fill="#1B1C1F"/>
<path d="M4.87148 8.73769C4.50393 8.88993 4.17446 9.21941 3.51552 9.87834C2.85677 10.5371 2.52712 10.8668 2.3749 11.2342C2.17191 11.7243 2.17191 12.275 2.3749 12.765C2.52714 13.1326 2.85662 13.4621 3.51555 14.121C4.17411 14.7796 4.50401 15.1094 4.87145 15.2616C5.3615 15.4646 5.91218 15.4646 6.40224 15.2616C6.76978 15.1094 7.09925 14.7799 7.75819 14.121C8.41714 13.4621 8.74564 13.1326 8.89788 12.765C9.10086 12.275 9.10086 11.7243 8.89788 11.2342C8.74564 10.8667 8.41714 10.5373 7.75819 9.87834C7.09925 9.2194 6.76978 8.88993 6.40224 8.73769C5.91218 8.5347 5.36153 8.5347 4.87148 8.73769Z" fill="#1B1C1F"/>
<path d="M16.244 9.87834C15.5853 10.5371 15.2556 10.8667 15.1034 11.2342C14.9004 11.7243 14.9004 12.275 15.1034 12.765C15.2557 13.1326 15.5851 13.462 16.2441 14.121C16.9026 14.7795 17.2325 15.1094 17.6 15.2616C18.09 15.4646 18.6407 15.4646 19.1308 15.2616C19.4983 15.1094 19.8278 14.7799 20.4867 14.121C21.1456 13.4621 21.4742 13.1326 21.6264 12.765C21.8294 12.275 21.8294 11.7243 21.6264 11.2342C21.4742 10.8667 21.1456 10.5373 20.4867 9.87834C19.8278 9.21941 19.4983 8.88993 19.1308 8.73769C18.6407 8.5347 18.09 8.5347 17.6 8.73769C17.2325 8.88993 16.903 9.21941 16.244 9.87834Z" fill="#1B1C1F"/>
<path d="M11.2357 15.1019C10.8682 15.2542 10.5387 15.5837 9.87978 16.2426C9.22102 16.9014 8.89137 17.231 8.73915 17.5985C8.53617 18.0886 8.53617 18.6392 8.73915 19.1293C8.8914 19.4968 9.22087 19.8263 9.87981 20.4852C10.5384 21.1438 10.8683 21.4737 11.2357 21.6259C11.7258 21.8289 12.2764 21.8289 12.7665 21.6259C13.134 21.4737 13.4635 21.1442 14.1225 20.4852C14.7814 19.8263 15.1099 19.4968 15.2621 19.1293C15.4651 18.6392 15.4651 18.0886 15.2621 17.5985C15.1099 17.231 14.7814 16.9015 14.1225 16.2426C13.4635 15.5837 13.134 15.2542 12.7665 15.1019C12.2764 14.899 11.7258 14.899 11.2357 15.1019Z" fill="#1B1C1F"/>
<path d="M11.2357 2.37392C10.8682 2.52616 10.5387 2.85565 9.87978 3.51457C9.221 4.17335 8.89138 4.50298 8.73915 4.87047C8.53617 5.36053 8.53617 5.91121 8.73915 6.40126C8.8914 6.76881 9.22087 7.09828 9.87981 7.75722C10.5384 8.41578 10.8683 8.74568 11.2357 8.89788C11.7258 9.10086 12.2764 9.10086 12.7665 8.89787C13.134 8.74563 13.4635 8.41616 14.1225 7.75722C14.7814 7.09828 15.1099 6.76881 15.2621 6.40126C15.4651 5.91121 15.4651 5.36053 15.2621 4.87047C15.1099 4.50293 14.7814 4.17351 14.1225 3.51457C13.4635 2.85564 13.134 2.52616 12.7665 2.37392C12.2764 2.17093 11.7258 2.17093 11.2357 2.37392Z" stroke="#1B1C1F" stroke-width="1.5" stroke-linecap="round" stroke-linejoin="round"/>
<path d="M4.87148 8.73769C4.50393 8.88993 4.17446 9.21941 3.51552 9.87834C2.85677 10.5371 2.52712 10.8668 2.3749 11.2342C2.17191 11.7243 2.17191 12.275 2.3749 12.765C2.52714 13.1326 2.85662 13.4621 3.51555 14.121C4.17411 14.7796 4.50401 15.1094 4.87145 15.2616C5.3615 15.4646 5.91218 15.4646 6.40224 15.2616C6.76978 15.1094 7.09925 14.7799 7.75819 14.121C8.41714 13.4621 8.74564 13.1326 8.89788 12.765C9.10086 12.275 9.10086 11.7243 8.89788 11.2342C8.74564 10.8667 8.41714 10.5373 7.75819 9.87834C7.09925 9.2194 6.76978 8.88993 6.40224 8.73769C5.91218 8.5347 5.36153 8.5347 4.87148 8.73769Z" stroke="#1B1C1F" stroke-width="1.5" stroke-linecap="round" stroke-linejoin="round"/>
<path d="M16.244 9.87834C15.5853 10.5371 15.2556 10.8667 15.1034 11.2342C14.9004 11.7243 14.9004 12.275 15.1034 12.765C15.2557 13.1326 15.5851 13.462 16.2441 14.121C16.9026 14.7795 17.2325 15.1094 17.6 15.2616C18.09 15.4646 18.6407 15.4646 19.1308 15.2616C19.4983 15.1094 19.8278 14.7799 20.4867 14.121C21.1456 13.4621 21.4742 13.1326 21.6264 12.765C21.8294 12.275 21.8294 11.7243 21.6264 11.2342C21.4742 10.8667 21.1456 10.5373 20.4867 9.87834C19.8278 9.21941 19.4983 8.88993 19.1308 8.73769C18.6407 8.5347 18.09 8.5347 17.6 8.73769C17.2325 8.88993 16.903 9.21941 16.244 9.87834Z" stroke="#1B1C1F" stroke-width="1.5" stroke-linecap="round" stroke-linejoin="round"/>
<path d="M11.2357 15.1019C10.8682 15.2542 10.5387 15.5837 9.87978 16.2426C9.22102 16.9014 8.89137 17.231 8.73915 17.5985C8.53617 18.0886 8.53617 18.6392 8.73915 19.1293C8.8914 19.4968 9.22087 19.8263 9.87981 20.4852C10.5384 21.1438 10.8683 21.4737 11.2357 21.6259C11.7258 21.8289 12.2764 21.8289 12.7665 21.6259C13.134 21.4737 13.4635 21.1442 14.1225 20.4852C14.7814 19.8263 15.1099 19.4968 15.2621 19.1293C15.4651 18.6392 15.4651 18.0886 15.2621 17.5985C15.1099 17.231 14.7814 16.9015 14.1225 16.2426C13.4635 15.5837 13.134 15.2542 12.7665 15.1019C12.2764 14.899 11.7258 14.899 11.2357 15.1019Z" stroke="#1B1C1F" stroke-width="1.5" stroke-linecap="round" stroke-linejoin="round"/>
</svg>
