<svg width="16" height="16" viewBox="0 0 16 16" fill="none" xmlns="http://www.w3.org/2000/svg">
<path d="M8.00008 14.2154C7.84453 14.2154 7.68897 14.1876 7.53341 14.132C7.37786 14.0765 7.23897 13.9931 7.11675 13.882C6.39453 13.2154 5.75564 12.5654 5.20008 11.932C4.64453 11.2987 4.18064 10.6848 3.80841 10.0904C3.43619 9.49592 3.15286 8.9237 2.95841 8.3737C2.76397 7.8237 2.66675 7.2987 2.66675 6.7987C2.66675 5.13203 3.20286 3.80425 4.27508 2.81536C5.3473 1.82648 6.58897 1.33203 8.00008 1.33203C9.41119 1.33203 10.6529 1.82648 11.7251 2.81536C12.7973 3.80425 13.3334 5.13203 13.3334 6.7987C13.3334 7.2987 13.2362 7.8237 13.0417 8.3737C12.8473 8.9237 12.564 9.49592 12.1917 10.0904C11.8195 10.6848 11.3556 11.2987 10.8001 11.932C10.2445 12.5654 9.60564 13.2154 8.88342 13.882C8.76119 13.9931 8.6223 14.0765 8.46675 14.132C8.31119 14.1876 8.15564 14.2154 8.00008 14.2154ZM8.00008 7.9987C8.36675 7.9987 8.68064 7.86814 8.94175 7.60703C9.20286 7.34592 9.33342 7.03203 9.33342 6.66536C9.33342 6.2987 9.20286 5.98481 8.94175 5.7237C8.68064 5.46259 8.36675 5.33203 8.00008 5.33203C7.63341 5.33203 7.31953 5.46259 7.05841 5.7237C6.7973 5.98481 6.66675 6.2987 6.66675 6.66536C6.66675 7.03203 6.7973 7.34592 7.05841 7.60703C7.31953 7.86814 7.63341 7.9987 8.00008 7.9987Z" fill="#237AF2"/>
</svg>
