<svg width="16" height="16" viewBox="0 0 16 16" fill="none" xmlns="http://www.w3.org/2000/svg">
<path d="M7.99984 14.2154C7.84428 14.2154 7.68873 14.1876 7.53317 14.132C7.37762 14.0765 7.23873 13.9931 7.1165 13.882C6.39428 13.2154 5.75539 12.5654 5.19984 11.932C4.64428 11.2987 4.18039 10.6848 3.80817 10.0904C3.43595 9.49592 3.15262 8.9237 2.95817 8.3737C2.76373 7.8237 2.6665 7.2987 2.6665 6.7987C2.6665 5.13203 3.20262 3.80425 4.27484 2.81536C5.34706 1.82648 6.58873 1.33203 7.99984 1.33203C9.41095 1.33203 10.6526 1.82648 11.7248 2.81536C12.7971 3.80425 13.3332 5.13203 13.3332 6.7987C13.3332 7.2987 13.2359 7.8237 13.0415 8.3737C12.8471 8.9237 12.5637 9.49592 12.1915 10.0904C11.8193 10.6848 11.3554 11.2987 10.7998 11.932C10.2443 12.5654 9.60539 13.2154 8.88317 13.882C8.76095 13.9931 8.62206 14.0765 8.4665 14.132C8.31095 14.1876 8.15539 14.2154 7.99984 14.2154ZM7.99984 7.9987C8.3665 7.9987 8.68039 7.86814 8.9415 7.60703C9.20262 7.34592 9.33317 7.03203 9.33317 6.66536C9.33317 6.2987 9.20262 5.98481 8.9415 5.7237C8.68039 5.46259 8.3665 5.33203 7.99984 5.33203C7.63317 5.33203 7.31928 5.46259 7.05817 5.7237C6.79706 5.98481 6.6665 6.2987 6.6665 6.66536C6.6665 7.03203 6.79706 7.34592 7.05817 7.60703C7.31928 7.86814 7.63317 7.9987 7.99984 7.9987Z" fill="#999999"/>
</svg>
