<svg width="16" height="16" viewBox="0 0 16 16" fill="none" xmlns="http://www.w3.org/2000/svg">
<path d="M7.01393 1.74829C7.13889 1.61102 7.29114 1.50135 7.46093 1.4263C7.63072 1.35126 7.8143 1.3125 7.99993 1.3125C8.18557 1.3125 8.36915 1.35126 8.53894 1.4263C8.70873 1.50135 8.86097 1.61102 8.98593 1.74829L9.66593 2.49496C9.79796 2.6399 9.96034 2.75394 10.1415 2.82896C10.3226 2.90398 10.5181 2.93812 10.7139 2.92896L11.7226 2.88229C11.908 2.87356 12.0931 2.90361 12.2662 2.97052C12.4392 3.03744 12.5964 3.13974 12.7277 3.27089C12.859 3.40203 12.9614 3.55914 13.0285 3.73215C13.0956 3.90516 13.1258 4.09026 13.1173 4.27562L13.0699 5.28496C13.0608 5.48081 13.0949 5.67627 13.1699 5.85741C13.2449 6.03856 13.359 6.20093 13.5039 6.33296L14.2506 7.01296C14.3879 7.13792 14.4975 7.29016 14.5726 7.45995C14.6476 7.62974 14.6864 7.81333 14.6864 7.99896C14.6864 8.18459 14.6476 8.36818 14.5726 8.53796C14.4975 8.70775 14.3879 8.86 14.2506 8.98496L13.5039 9.66496C13.359 9.79699 13.2449 9.95936 13.1699 10.1405C13.0949 10.3216 13.0608 10.5171 13.0699 10.713L13.1166 11.7216C13.1253 11.907 13.0953 12.0921 13.0284 12.2652C12.9615 12.4383 12.8592 12.5955 12.728 12.7267C12.5969 12.858 12.4398 12.9605 12.2667 13.0275C12.0937 13.0946 11.9086 13.1248 11.7233 13.1163L10.7139 13.069C10.5181 13.0598 10.3226 13.0939 10.1415 13.169C9.96034 13.244 9.79796 13.358 9.66593 13.503L8.98593 14.2496C8.86097 14.3869 8.70873 14.4966 8.53894 14.5716C8.36915 14.6467 8.18557 14.6854 7.99993 14.6854C7.8143 14.6854 7.63072 14.6467 7.46093 14.5716C7.29114 14.4966 7.13889 14.3869 7.01393 14.2496L6.33393 13.503C6.2019 13.358 6.03953 13.244 5.85839 13.169C5.67724 13.0939 5.48178 13.0598 5.28593 13.069L4.27727 13.1156C4.09191 13.1244 3.90678 13.0943 3.73371 13.0274C3.56063 12.9605 3.40343 12.8582 3.27216 12.727C3.14089 12.5959 3.03843 12.4388 2.97135 12.2658C2.90427 12.0928 2.87405 11.9077 2.8826 11.7223L2.92993 10.713C2.9391 10.5171 2.90495 10.3216 2.82994 10.1405C2.75492 9.95936 2.64088 9.79699 2.49593 9.66496L1.74927 8.98496C1.61199 8.86 1.50232 8.70775 1.42728 8.53796C1.35224 8.36818 1.31348 8.18459 1.31348 7.99896C1.31348 7.81333 1.35224 7.62974 1.42728 7.45995C1.50232 7.29016 1.61199 7.13792 1.74927 7.01296L2.49593 6.33296C2.64088 6.20093 2.75492 6.03856 2.82994 5.85741C2.90495 5.67627 2.9391 5.48081 2.92993 5.28496L2.88327 4.27629C2.87453 4.09094 2.90459 3.9058 2.9715 3.73273C3.03841 3.55966 3.14072 3.40245 3.27186 3.27118C3.40301 3.13991 3.56011 3.03746 3.73312 2.97038C3.90613 2.9033 4.09124 2.87307 4.2766 2.88162L5.28593 2.92896C5.48178 2.93812 5.67724 2.90398 5.85839 2.82896C6.03953 2.75394 6.2019 2.6399 6.33393 2.49496L7.01393 1.74829Z" fill="#7059FA"/>
<path d="M6 7.9974L7.33333 9.33073L10 6.66406" stroke="white" stroke-width="1.5" stroke-linecap="round" stroke-linejoin="round"/>
</svg>
