<svg width="24" height="24" viewBox="0 0 24 24" fill="none" xmlns="http://www.w3.org/2000/svg">
<path d="M14.0008 10L11.0008 13M20.2888 3.031C20.3837 2.99825 20.4859 2.99286 20.5837 3.01545C20.6815 3.03803 20.771 3.08768 20.8419 3.15871C20.9129 3.22974 20.9624 3.31929 20.9848 3.41714C21.0073 3.51498 21.0017 3.61716 20.9688 3.712L15.0448 20.642C15.0094 20.7432 14.9443 20.8314 14.8581 20.8952C14.772 20.959 14.6686 20.9954 14.5614 20.9997C14.4543 21.004 14.3483 20.976 14.2573 20.9194C14.1662 20.8627 14.0943 20.78 14.0508 20.682L10.8318 13.44C10.7777 13.3196 10.6813 13.2232 10.5608 13.169L3.31884 9.949C3.22113 9.90538 3.13875 9.83346 3.08234 9.74253C3.02593 9.65161 2.99808 9.54586 3.00239 9.43894C3.00669 9.33203 3.04296 9.22886 3.1065 9.14277C3.17004 9.05668 3.25794 8.99162 3.35884 8.956L20.2888 3.031Z" stroke="#1B1C1F" stroke-width="1.5" stroke-linecap="round" stroke-linejoin="round"/>
</svg>
