<svg width="32" height="32" viewBox="0 0 32 32" fill="none" xmlns="http://www.w3.org/2000/svg">
<path d="M6.6665 23.1115V8.88931C6.6665 7.71656 6.6665 7.12953 6.91329 6.78254C7.12869 6.47969 7.46069 6.28086 7.82926 6.23332C8.25142 6.17887 8.76918 6.45501 9.80322 7.0065L23.1366 14.1176L23.1414 14.1198C24.2841 14.7292 24.8558 15.0341 25.0433 15.4404C25.2069 15.7949 25.2069 16.2041 25.0433 16.5586C24.8555 16.9655 24.2825 17.2716 23.1366 17.8828L9.80322 24.9939C8.76844 25.5458 8.25157 25.8209 7.82926 25.7664C7.46069 25.7189 7.12869 25.5201 6.91329 25.2172C6.6665 24.8702 6.6665 24.2843 6.6665 23.1115Z" fill="#FE4752" stroke="#FE4752" stroke-width="2" stroke-linecap="round" stroke-linejoin="round"/>
</svg>
