<svg width="24" height="24" viewBox="0 0 24 24" fill="none" xmlns="http://www.w3.org/2000/svg">
<path d="M3 11V3M3 3H11M3 3L13 13" stroke="#1B1C1F" stroke-width="2.5" stroke-linecap="round"/>
<path d="M4 15V15C4 16.8692 4 17.8038 4.40192 18.5C4.66523 18.9561 5.04394 19.3348 5.5 19.5981C6.19615 20 7.13077 20 9 20H14C16.8284 20 18.2426 20 19.1213 19.1213C20 18.2426 20 16.8284 20 14V9C20 7.13077 20 6.19615 19.5981 5.5C19.3348 5.04394 18.9561 4.66523 18.5 4.40192C17.8038 4 16.8692 4 15 4V4" stroke="#1B1C1F" stroke-width="2.5" stroke-linecap="round"/>
</svg>
