<svg width="24" height="24" viewBox="0 0 24 24" fill="none" xmlns="http://www.w3.org/2000/svg">
<path d="M9.7472 21.734C10.4867 21.9105 11.2437 21.9995 12.0037 21.9995C12.7621 21.9988 13.5177 21.9092 14.2552 21.7325C14.4491 21.6858 14.6239 21.5805 14.7557 21.4309C14.8876 21.2813 14.9702 21.0947 14.9922 20.8965L15.1612 19.361C15.19 19.0865 15.3156 18.8312 15.5157 18.6411C15.7158 18.4509 15.9771 18.3383 16.2527 18.3235C16.4362 18.3155 16.6187 18.35 16.7867 18.4235L18.1902 19.039C18.3122 19.0939 18.4444 19.1228 18.5782 19.1236C18.712 19.1245 18.8445 19.0974 18.9672 19.044C19.0907 18.9915 19.2012 18.9135 19.2922 18.815C20.3238 17.7024 21.0942 16.3736 21.5472 14.9255C21.6066 14.7334 21.6048 14.5276 21.5421 14.3365C21.4794 14.1454 21.3589 13.9786 21.1972 13.859L19.9502 12.939C19.8017 12.8311 19.6808 12.6896 19.5974 12.5261C19.5141 12.3625 19.4706 12.1816 19.4706 11.998C19.4706 11.8144 19.5141 11.6335 19.5974 11.4699C19.6808 11.3064 19.8017 11.1649 19.9502 11.057L21.1932 10.139C21.3554 10.0193 21.4762 9.852 21.539 9.66042C21.6017 9.46883 21.6032 9.26247 21.5432 9.07C21.0909 7.62137 20.3194 6.2926 19.2857 5.1815C19.1486 5.03541 18.9697 4.93535 18.7734 4.89506C18.5772 4.85477 18.3733 4.87623 18.1897 4.9565L16.7867 5.5745C16.6417 5.64 16.4837 5.6745 16.3237 5.6745C16.0358 5.67372 15.7582 5.56678 15.5442 5.37416C15.3302 5.18154 15.1947 4.91677 15.1637 4.6305L14.9937 3.1005C14.9717 2.89977 14.8877 2.7109 14.7532 2.56023C14.6188 2.40956 14.4406 2.3046 14.2437 2.26C13.5099 2.09632 12.761 2.00935 12.0092 2.0005C11.2523 2.00952 10.4983 2.09665 9.7592 2.2605C9.56238 2.30465 9.38428 2.4092 9.2498 2.55954C9.11533 2.70988 9.03121 2.8985 9.0092 3.099L8.8392 4.63C8.8069 4.91674 8.67021 5.18157 8.4552 5.374C8.2355 5.56043 7.95874 5.66627 7.6707 5.674C7.51182 5.6739 7.35468 5.64087 7.2092 5.577L5.8092 4.959C5.62505 4.87794 5.42026 4.85614 5.22317 4.89663C5.02609 4.93713 4.84647 5.0379 4.7092 5.185C3.67718 6.29656 2.90672 7.62479 2.4542 9.0725C2.39434 9.2649 2.39588 9.47116 2.4586 9.66264C2.52132 9.85412 2.64211 10.0213 2.8042 10.141L4.0482 11.059C4.27043 11.2232 4.42748 11.4607 4.49161 11.7295C4.55574 11.9983 4.52284 12.2811 4.3987 12.528C4.31612 12.6917 4.19623 12.8337 4.0487 12.9425L2.8037 13.862C2.64181 13.9816 2.52115 14.1487 2.45843 14.3399C2.39572 14.5312 2.39407 14.7372 2.4537 14.9295C2.90496 16.3788 3.67554 17.7084 4.7087 18.8205C4.84517 18.9677 5.02413 19.0686 5.22066 19.1093C5.41719 19.15 5.62152 19.1284 5.8052 19.0475L7.2142 18.429C7.3597 18.365 7.5167 18.332 7.6757 18.332H7.6797C7.96656 18.3326 8.2432 18.4386 8.45706 18.6297C8.67092 18.8209 8.80709 19.084 8.8397 19.369L9.0087 20.8975C9.03071 21.096 9.11345 21.2829 9.24563 21.4326C9.3778 21.5823 9.55297 21.6876 9.7472 21.734ZM12.0002 15.125C11.1714 15.125 10.3765 14.7958 9.79049 14.2097C9.20444 13.6237 8.8752 12.8288 8.8752 12C8.8752 11.1712 9.20444 10.3763 9.79049 9.79029C10.3765 9.20424 11.1714 8.875 12.0002 8.875C12.829 8.875 13.6239 9.20424 14.2099 9.79029C14.796 10.3763 15.1252 11.1712 15.1252 12C15.1252 12.8288 14.796 13.6237 14.2099 14.2097C13.6239 14.7958 12.829 15.125 12.0002 15.125Z" fill="#1B1C1F"/>
</svg>
