<svg width="24" height="24" viewBox="0 0 24 24" fill="none" xmlns="http://www.w3.org/2000/svg">
<path d="M11.9998 8.25C11.0052 8.25 10.0514 8.64509 9.34811 9.34835C8.64484 10.0516 8.24976 11.0054 8.24976 12C8.24976 12.9946 8.64484 13.9484 9.34811 14.6516C10.0514 15.3549 11.0052 15.75 11.9998 15.75C12.9943 15.75 13.9481 15.3549 14.6514 14.6516C15.3547 13.9484 15.7498 12.9946 15.7498 12C15.7498 11.0054 15.3547 10.0516 14.6514 9.34835C13.9481 8.64509 12.9943 8.25 11.9998 8.25ZM9.74976 12C9.74976 11.4033 9.98681 10.831 10.4088 10.409C10.8307 9.98705 11.403 9.75 11.9998 9.75C12.5965 9.75 13.1688 9.98705 13.5907 10.409C14.0127 10.831 14.2498 11.4033 14.2498 12C14.2498 12.5967 14.0127 13.169 13.5907 13.591C13.1688 14.0129 12.5965 14.25 11.9998 14.25C11.403 14.25 10.8307 14.0129 10.4088 13.591C9.98681 13.169 9.74976 12.5967 9.74976 12ZM9.62976 22.221C10.406 22.4062 11.2018 22.5 11.9998 22.5C12.797 22.4991 13.5915 22.4047 14.3668 22.2187C14.5894 22.166 14.7904 22.0458 14.9421 21.8745C15.0938 21.7032 15.1889 21.4892 15.2143 21.2617L15.3898 19.6642C15.4065 19.4899 15.4646 19.3221 15.5591 19.1746C15.6537 19.0272 15.782 18.9044 15.9335 18.8165C16.0849 18.7285 16.2551 18.6779 16.43 18.6688C16.605 18.6597 16.7795 18.6924 16.9393 18.7642L18.4055 19.4062C18.6154 19.4988 18.8489 19.5237 19.0735 19.4773C19.2982 19.4309 19.5027 19.3156 19.6588 19.1475C20.7421 17.9801 21.5508 16.5854 22.0258 15.0652C22.0936 14.8454 22.0915 14.6098 22.0196 14.3912C21.9477 14.1726 21.8096 13.9817 21.6245 13.845L20.3278 12.8887C20.186 12.7856 20.0706 12.6504 19.9912 12.4941C19.9117 12.3379 19.8704 12.165 19.8706 11.9897C19.8709 11.8144 19.9126 11.6416 19.9925 11.4855C20.0723 11.3295 20.188 11.1945 20.33 11.0917L21.62 10.1392C21.8067 10.0033 21.946 9.81222 22.0183 9.59287C22.0906 9.37353 22.0921 9.13703 22.0228 8.91675C21.5487 7.39605 20.7396 6.00106 19.655 4.8345C19.4982 4.66683 19.2932 4.55191 19.0684 4.50557C18.8435 4.45923 18.6098 4.48375 18.3995 4.57575L16.94 5.21775C16.78 5.28748 16.6059 5.31859 16.4317 5.30857C16.2575 5.29855 16.088 5.24767 15.9371 5.16006C15.7862 5.07244 15.658 4.95054 15.5629 4.80422C15.4678 4.65789 15.4085 4.49124 15.3898 4.31775L15.2128 2.72775C15.1876 2.4977 15.0911 2.28127 14.9369 2.10873C14.7826 1.9362 14.5783 1.81619 14.3525 1.7655C13.5825 1.59274 12.7964 1.50149 12.0073 1.49325C11.2135 1.50267 10.4228 1.59391 9.64776 1.7655C9.42178 1.81503 9.2171 1.93439 9.06271 2.10668C8.90832 2.27897 8.81204 2.49546 8.78751 2.7255L8.60976 4.317C8.59034 4.49076 8.5305 4.65755 8.43504 4.80403C8.33957 4.95051 8.21114 5.0726 8.06001 5.16052C7.90888 5.24844 7.73927 5.29975 7.56475 5.31034C7.39023 5.32093 7.21565 5.2905 7.05501 5.2215L5.59551 4.57875C5.38498 4.48898 5.15196 4.46601 4.92796 4.51296C4.70396 4.55991 4.49977 4.6745 4.34301 4.84125C3.25834 6.009 2.44857 7.40456 1.97301 8.92575C1.90556 9.14551 1.90801 9.3808 1.98002 9.59911C2.05203 9.81742 2.19005 10.008 2.37501 10.1445L3.66876 11.0985C3.80969 11.2022 3.92426 11.3376 4.00323 11.4937C4.08219 11.6499 4.12333 11.8224 4.12333 11.9974C4.12333 12.1723 4.08219 12.3449 4.00323 12.501C3.92426 12.6572 3.80969 12.7925 3.66876 12.8962L2.37501 13.8525C2.18944 13.9894 2.05109 14.1806 1.97918 14.3997C1.90728 14.6188 1.90538 14.8548 1.97376 15.075C2.44891 16.5972 3.2587 17.9939 4.34376 19.1625C4.44696 19.2733 4.57203 19.3615 4.71106 19.4216C4.8501 19.4816 5.00007 19.5121 5.15151 19.5112C5.30376 19.5112 5.45451 19.4797 5.59476 19.419L7.06101 18.7747C7.22093 18.7057 7.39484 18.675 7.56874 18.6854C7.74265 18.6957 7.91172 18.7467 8.06234 18.8342C8.21297 18.9217 8.34096 19.0434 8.43604 19.1894C8.53111 19.3353 8.59061 19.5016 8.60976 19.6747L8.78601 21.2692C8.81202 21.4954 8.90692 21.708 9.05785 21.8784C9.20877 22.0488 9.40843 22.1679 9.62976 22.221ZM13.7555 20.8222C12.5984 21.0604 11.4049 21.0604 10.2478 20.8222L10.1015 19.5173C10.03 18.8788 9.72559 18.2892 9.24651 17.8612C8.87159 17.5307 8.41075 17.3129 7.91728 17.2333C7.42381 17.1537 6.91788 17.2154 6.45801 17.4112L5.25351 17.9362C4.47593 17.0469 3.87792 16.0154 3.49251 14.8987L4.56051 14.1097C4.89046 13.8666 5.15867 13.5494 5.34352 13.1835C5.52836 12.8177 5.62466 12.4136 5.62466 12.0037C5.62466 11.5939 5.52836 11.1898 5.34352 10.824C5.15867 10.4581 4.89046 10.1409 4.56051 9.89775L3.49476 9.11025C3.88052 7.99463 4.47851 6.96419 5.25576 6.07575L6.45576 6.60075C6.78651 6.7468 7.1442 6.82192 7.50576 6.82125C8.14962 6.81923 8.77029 6.58064 9.24972 6.15085C9.72915 5.72107 10.0339 5.13007 10.106 4.49025L10.2515 3.18C10.832 3.0675 11.4215 3.0075 12.0118 3C12.5983 3.0075 13.1833 3.0675 13.7593 3.18L13.8988 4.485C13.9682 5.12523 14.2719 5.71717 14.7515 6.147C15.1271 6.4789 15.5891 6.69738 16.0839 6.77704C16.5787 6.8567 17.086 6.79426 17.5468 6.597L18.7468 6.072C19.5246 6.96053 20.1231 7.99124 20.5093 9.10725L19.442 9.89175C19.1104 10.134 18.8406 10.4512 18.6546 10.8174C18.4686 11.1836 18.3717 11.5885 18.3717 11.9992C18.3717 12.41 18.4686 12.8149 18.6546 13.1811C18.8406 13.5473 19.1104 13.8645 19.442 14.1067L20.5085 14.8942C20.1214 16.0079 19.5243 17.0369 18.7498 17.9257L17.5498 17.4007C17.1742 17.2336 16.7645 17.1578 16.3541 17.1793C15.9436 17.2009 15.5441 17.3193 15.1882 17.5248C14.8322 17.7304 14.53 18.0172 14.3061 18.362C14.0823 18.7067 13.9432 19.0995 13.9003 19.5082L13.7555 20.8222Z" fill="#1B1C1F"/>
</svg>
