<svg width="24" height="24" viewBox="0 0 24 24" fill="none" xmlns="http://www.w3.org/2000/svg">
<path d="M12.0001 14.9497C11.8668 14.9497 11.7418 14.9289 11.6251 14.8872C11.5084 14.8456 11.4001 14.7747 11.3001 14.6747L6.70011 10.0747C6.51678 9.89139 6.42094 9.66222 6.41261 9.38722C6.40428 9.11222 6.50011 8.87472 6.70011 8.67472C6.88344 8.49139 7.11678 8.39972 7.40011 8.39972C7.68344 8.39972 7.91678 8.49139 8.10011 8.67472L12.0001 12.5497L15.9001 8.67472C16.0834 8.49139 16.3126 8.39555 16.5876 8.38722C16.8626 8.37889 17.1001 8.47472 17.3001 8.67472C17.4834 8.85805 17.5751 9.09139 17.5751 9.37472C17.5751 9.65805 17.4834 9.89139 17.3001 10.0747L12.7001 14.6747C12.6001 14.7747 12.4918 14.8456 12.3751 14.8872C12.2584 14.9289 12.1334 14.9497 12.0001 14.9497Z" fill="#1B1C1F"/>
</svg>
