<svg width="14" height="14" viewBox="0 0 14 14" fill="none" xmlns="http://www.w3.org/2000/svg">
<path d="M12.7554 0.51818C12.2714 0.44018 11.7548 0.602847 11.3061 0.765514C10.6581 1.00151 9.92611 1.38551 9.54211 1.76951L8.46878 2.90485L4.91278 1.55818C4.69847 1.46882 4.46284 1.44355 4.23446 1.48544C4.00608 1.52733 3.79476 1.63458 3.62611 1.79418L2.64011 2.72551C2.41345 2.93951 2.44011 3.31885 2.69545 3.49885L5.82611 5.70085L5.25145 6.30885C4.90478 6.65551 4.58745 6.99418 4.34811 7.32351C4.23843 7.47184 4.14205 7.62956 4.06011 7.79485L2.63411 7.23218C2.19411 7.05885 1.70545 7.18551 1.37678 7.49685L0.656781 8.17685C0.605522 8.22641 0.565349 8.28628 0.538908 8.3525C0.512468 8.41872 0.50036 8.4898 0.503384 8.56104C0.506407 8.63228 0.524493 8.70207 0.556449 8.76581C0.588405 8.82955 0.633506 8.8858 0.688781 8.93085L3.12278 10.8788L5.07078 13.3128C5.25745 13.5462 5.61878 13.5615 5.82411 13.3442L6.50545 12.6242C6.81545 12.2962 6.94345 11.8068 6.76945 11.3675L6.20678 9.94218C6.37145 9.86218 6.52878 9.76218 6.67811 9.65351C7.00745 9.41418 7.34611 9.09685 7.69278 8.75085L8.30078 8.17551L10.5034 11.3062C10.5467 11.366 10.6026 11.4157 10.6671 11.4516C10.7316 11.4875 10.8032 11.5089 10.8769 11.5142C10.9505 11.5194 11.0244 11.5085 11.0934 11.4821C11.1624 11.4558 11.2248 11.4146 11.2761 11.3615L12.2074 10.3748C12.3669 10.2061 12.4741 9.99477 12.5158 9.7664C12.5576 9.53802 12.5322 9.30243 12.4428 9.08818L11.0968 5.53218L12.2321 4.45885C12.6168 4.07418 13.0001 3.34285 13.2361 2.69485C13.3988 2.24685 13.5614 1.72951 13.4834 1.24551C13.4589 1.06134 13.3745 0.890358 13.2432 0.758919C13.1118 0.62748 12.9409 0.542886 12.7568 0.51818" fill="#4E5968"/>
</svg>
