<svg width="24" height="24" viewBox="0 0 24 24" fill="none" xmlns="http://www.w3.org/2000/svg">
<path d="M7.28392 9.71L6.85992 8.887C6.69192 8.559 6.60692 8.395 6.47992 8.277C6.37635 8.17866 6.25292 8.10364 6.11792 8.057C5.95292 8 5.76592 8 5.39192 8C4.84192 8 4.56792 8 4.35292 8.105C4.17805 8.19 4.03174 8.32414 3.93192 8.491C3.80992 8.694 3.78992 8.963 3.75092 9.502L3.07592 18.786C2.96592 20.292 2.91192 21.044 3.36492 21.522C3.81792 22 4.58492 22 6.11992 22H17.8779C19.4139 22 20.1809 22 20.6339 21.522C21.0869 21.044 21.0319 20.292 20.9229 18.786L20.2479 9.502C20.2079 8.963 20.1889 8.694 20.0679 8.491C19.9678 8.324 19.8212 8.18984 19.6459 8.105C19.4319 8 19.1569 8 18.6069 8C18.2339 8 18.0469 8 17.8819 8.057C17.7466 8.10351 17.6228 8.17854 17.5189 8.277C17.3929 8.395 17.3089 8.559 17.1389 8.887L16.7159 9.71C16.5959 9.943 16.5359 10.06 16.4549 10.153C16.3171 10.3118 16.1327 10.423 15.9279 10.471C15.8079 10.5 15.6749 10.5 15.4079 10.5C15.1109 10.5 14.9619 10.5 14.8299 10.465C14.6071 10.4052 14.4111 10.2716 14.2739 10.086C14.1939 9.978 14.1419 9.841 14.0369 9.567L13.9149 9.25C13.6919 8.668 13.5809 8.377 13.3459 8.203L13.2759 8.154C13.0249 8 12.7099 8 12.0759 8H11.9219C11.2889 8 10.9719 8 10.7239 8.154L10.6529 8.203C10.4179 8.377 10.3069 8.668 10.0829 9.25L9.96292 9.567C9.85692 9.841 9.80492 9.977 9.72492 10.087C9.58764 10.2722 9.39165 10.4055 9.16892 10.465C9.03692 10.5 8.88892 10.5 8.59092 10.5C8.32392 10.5 8.19092 10.5 8.07092 10.47C7.86632 10.4223 7.68193 10.3114 7.54392 10.153C7.46392 10.06 7.40492 9.943 7.28392 9.71ZM11.9999 5C13.4909 5.684 15.9999 4.5 15.9999 2C14.3579 2.623 13.5099 2.614 11.9999 2V5ZM11.9999 5V8Z" fill="#1B1C1F"/>
<path d="M11.9999 5C13.4909 5.684 15.9999 4.5 15.9999 2C14.3579 2.623 13.5099 2.614 11.9999 2V5ZM11.9999 5V8M7.28392 9.71L6.85992 8.887C6.69192 8.559 6.60692 8.395 6.47992 8.277C6.37635 8.17866 6.25292 8.10364 6.11792 8.057C5.95292 8 5.76592 8 5.39192 8C4.84192 8 4.56792 8 4.35292 8.105C4.17805 8.19 4.03174 8.32414 3.93192 8.491C3.80992 8.694 3.78992 8.963 3.75092 9.502L3.07592 18.786C2.96592 20.292 2.91192 21.044 3.36492 21.522C3.81792 22 4.58492 22 6.11992 22H17.8779C19.4139 22 20.1809 22 20.6339 21.522C21.0869 21.044 21.0319 20.292 20.9229 18.786L20.2479 9.502C20.2079 8.963 20.1889 8.694 20.0679 8.491C19.9678 8.324 19.8212 8.18984 19.6459 8.105C19.4319 8 19.1569 8 18.6069 8C18.2339 8 18.0469 8 17.8819 8.057C17.7466 8.10351 17.6228 8.17854 17.5189 8.277C17.3929 8.395 17.3089 8.559 17.1389 8.887L16.7159 9.71C16.5959 9.943 16.5359 10.06 16.4549 10.153C16.3171 10.3118 16.1327 10.423 15.9279 10.471C15.8079 10.5 15.6749 10.5 15.4079 10.5C15.1109 10.5 14.9619 10.5 14.8299 10.465C14.6071 10.4052 14.4111 10.2716 14.2739 10.086C14.1939 9.978 14.1419 9.841 14.0369 9.567L13.9149 9.25C13.6919 8.668 13.5809 8.377 13.3459 8.203L13.2759 8.154C13.0249 8 12.7099 8 12.0759 8H11.9219C11.2889 8 10.9719 8 10.7239 8.154L10.6529 8.203C10.4179 8.377 10.3069 8.668 10.0829 9.25L9.96292 9.567C9.85692 9.841 9.80492 9.977 9.72492 10.087C9.58764 10.2722 9.39165 10.4055 9.16892 10.465C9.03692 10.5 8.88892 10.5 8.59092 10.5C8.32392 10.5 8.19092 10.5 8.07092 10.47C7.86632 10.4223 7.68193 10.3114 7.54392 10.153C7.46392 10.06 7.40492 9.943 7.28392 9.71Z" stroke="#1B1C1F" stroke-width="2.8" stroke-linecap="round" stroke-linejoin="round"/>
<path d="M9 22L9.608 18.961C9.751 18.243 9.823 17.885 10.015 17.619C10.494 16.96 11.262 17 12 17C12.738 17 13.507 16.96 13.985 17.62C14.177 17.884 14.249 18.243 14.392 18.961L15 22M11 14H13Z" fill="white"/>
<path d="M9 22L9.608 18.961C9.751 18.243 9.823 17.885 10.015 17.619C10.494 16.96 11.262 17 12 17C12.738 17 13.507 16.96 13.985 17.62C14.177 17.884 14.249 18.243 14.392 18.961L15 22M11 14H13" stroke="#1B1C1F" stroke-width="2.7" stroke-linecap="round" stroke-linejoin="round"/>
<path d="M11 14H13" stroke="white" stroke-width="1.5" stroke-linecap="round"/>
</svg>
