<svg width="24" height="24" viewBox="0 0 24 24" fill="none" xmlns="http://www.w3.org/2000/svg">
<path fill-rule="evenodd" clip-rule="evenodd" d="M7.34435 4.017C10.4382 3.67445 13.5605 3.67445 16.6543 4.017C18.3673 4.209 19.7493 5.558 19.9503 7.277C20.317 10.415 20.317 13.585 19.9503 16.723C19.7493 18.442 18.3673 19.791 16.6543 19.983C13.5605 20.3256 10.4382 20.3256 7.34435 19.983C5.63135 19.791 4.24935 18.442 4.04835 16.723C3.6818 13.5853 3.6818 10.4157 4.04835 7.278C4.15001 6.44287 4.53073 5.66655 5.12878 5.07485C5.72683 4.48315 6.50718 4.11075 7.34335 4.018M11.9993 7.007C12.1983 7.007 12.389 7.08602 12.5297 7.22667C12.6703 7.36732 12.7493 7.55809 12.7493 7.757V11.25H16.2423C16.4413 11.25 16.632 11.329 16.7727 11.4697C16.9133 11.6103 16.9923 11.8011 16.9923 12C16.9923 12.1989 16.9133 12.3897 16.7727 12.5303C16.632 12.671 16.4413 12.75 16.2423 12.75H12.7493V16.243C12.7493 16.4419 12.6703 16.6327 12.5297 16.7733C12.389 16.914 12.1983 16.993 11.9993 16.993C11.8004 16.993 11.6097 16.914 11.469 16.7733C11.3284 16.6327 11.2493 16.4419 11.2493 16.243V12.75H7.75635C7.55743 12.75 7.36667 12.671 7.22602 12.5303C7.08536 12.3897 7.00635 12.1989 7.00635 12C7.00635 11.8011 7.08536 11.6103 7.22602 11.4697C7.36667 11.329 7.55743 11.25 7.75635 11.25H11.2493V7.757C11.2493 7.55809 11.3284 7.36732 11.469 7.22667C11.6097 7.08602 11.8004 7.007 11.9993 7.007Z" fill="#1B1C1F"/>
</svg>
