<svg width="24" height="24" viewBox="0 0 24 24" fill="none" xmlns="http://www.w3.org/2000/svg">
<path d="M12 22C9.76667 22 7.875 21.225 6.325 19.675C4.775 18.125 4 16.2333 4 14C4 12.1167 4.55833 10.3083 5.675 8.57501C6.79167 6.84167 8.325 5.32501 10.275 4.02501C10.6417 3.77501 11.0208 3.76251 11.4125 3.98751C11.8042 4.21251 12 4.55001 12 5.00001V6.30001C12 6.86667 12.1958 7.34167 12.5875 7.72501C12.9792 8.10834 13.4583 8.30001 14.025 8.30001C14.3083 8.30001 14.5792 8.23751 14.8375 8.11251C15.0958 7.98751 15.325 7.80834 15.525 7.57501C15.6583 7.40834 15.8292 7.30417 16.0375 7.26251C16.2458 7.22084 16.4417 7.26667 16.625 7.40001C17.675 8.15001 18.5 9.10834 19.1 10.275C19.7 11.4417 20 12.6833 20 14C20 16.2333 19.225 18.125 17.675 19.675C16.125 21.225 14.2333 22 12 22ZM6 14C6 14.8667 6.175 15.6875 6.525 16.4625C6.875 17.2375 7.375 17.9167 8.025 18.5C8.00833 18.4167 8 18.3417 8 18.275V18.05C8 17.5167 8.1 17.0167 8.3 16.55C8.5 16.0833 8.79167 15.6583 9.175 15.275L12 12.5L14.825 15.275C15.2083 15.6583 15.5 16.0833 15.7 16.55C15.9 17.0167 16 17.5167 16 18.05V18.275C16 18.3417 15.9917 18.4167 15.975 18.5C16.625 17.9167 17.125 17.2375 17.475 16.4625C17.825 15.6875 18 14.8667 18 14C18 13.1667 17.8458 12.3792 17.5375 11.6375C17.2292 10.8958 16.7833 10.2333 16.2 9.65001C15.8667 9.86667 15.5167 10.0292 15.15 10.1375C14.7833 10.2458 14.4083 10.3 14.025 10.3C12.9917 10.3 12.0958 9.95834 11.3375 9.27501C10.5792 8.59167 10.1417 7.75001 10.025 6.75001C8.725 7.85001 7.72917 9.02084 7.0375 10.2625C6.34583 11.5042 6 12.75 6 14ZM12 15.3L10.575 16.7C10.3917 16.8833 10.25 17.0917 10.15 17.325C10.05 17.5583 10 17.8 10 18.05C10 18.5833 10.1958 19.0417 10.5875 19.425C10.9792 19.8083 11.45 20 12 20C12.55 20 13.0208 19.8083 13.4125 19.425C13.8042 19.0417 14 18.5833 14 18.05C14 17.7833 13.95 17.5375 13.85 17.3125C13.75 17.0875 13.6083 16.8833 13.425 16.7L12 15.3Z" fill="#1B1C1F"/>
</svg>
