<svg width="24" height="24" viewBox="0 0 24 24" fill="none" xmlns="http://www.w3.org/2000/svg">
<mask id="mask0_641_699" style="mask-type:alpha" maskUnits="userSpaceOnUse" x="0" y="0" width="24" height="24">
<rect width="24" height="24" fill="#D9D9D9"/>
</mask>
<g mask="url(#mask0_641_699)">
<path d="M11 16H13V13H16V11H13V8H11V11H8V13H11V16ZM12 22C11.7333 22 11.4792 21.9542 11.2375 21.8625C10.9958 21.7708 10.7833 21.625 10.6 21.425L2.625 13.425C2.44167 13.225 2.29167 13.0042 2.175 12.7625C2.05833 12.5208 2 12.2667 2 12C2 11.7333 2.05833 11.4792 2.175 11.2375C2.29167 10.9958 2.44167 10.7833 2.625 10.6L10.6 2.6C10.8 2.4 11.0167 2.25 11.25 2.15C11.4833 2.05 11.7333 2 12 2C12.2667 2 12.525 2.05 12.775 2.15C13.025 2.25 13.2417 2.4 13.425 2.6L21.375 10.6C21.5583 10.8 21.7083 11.0167 21.825 11.25C21.9417 11.4833 22 11.7333 22 12C22 12.2667 21.9458 12.5208 21.8375 12.7625C21.7292 13.0042 21.575 13.225 21.375 13.425L13.425 21.425C13.2417 21.6083 13.025 21.75 12.775 21.85C12.525 21.95 12.2667 22 12 22Z" fill="#1C1B1F"/>
</g>
</svg>
